<svg width="630" xmlns="http://www.w3.org/2000/svg" height="630"><path fill="#f7df1e" d="M0 0h630v630h-630z"/><path d="M165.65 526.474l48.212-29.177c9.301 16.491 17.762 30.444 38.057 30.444 19.454 0 31.719-7.61 31.719-37.21v-201.3h59.204v202.137c0 61.32-35.944 89.231-88.385 89.231-47.361 0-74.853-24.529-88.808-54.13"/><path d="M375 520.13l48.206-27.911c12.69 20.724 29.183 35.947 58.361 35.947 24.531 0 40.174-12.265 40.174-29.181 0-20.299-16.069-27.489-43.135-39.326l-14.797-6.348c-42.715-18.181-71.05-41.017-71.05-89.228 0-44.404 33.831-78.237 86.695-78.237 37.638 0 64.703 13.111 84.154 47.366l-46.096 29.601c-10.15-18.183-21.142-25.371-38.057-25.371-17.339 0-28.335 10.995-28.335 25.371 0 17.762 10.996 24.953 36.367 35.949l14.8 6.343c50.325 21.569 78.66 43.557 78.66 93.034 0 53.288-41.866 82.465-98.11 82.465-54.976 0-90.5-26.218-107.836-60.474"/><path d="M29.661 108.478v-77.4h10.6l39.7 52.7h.2v-50.7h14.7v76.9h-10.6l-39.7-52.7h-.2v51.2h-14.7"/><path d="M189.237 92.578h-26.2l-6.2 15.9h-15.5l29.4-77.4h11.4l28.6 77.4h-15.7l-5.8-15.9m-4.1-12l-9.4-27.4h-.2l-8.3 27.4h17.9"/><path d="M257.216 108.478v-77.4h10.6l39.7 52.7h.2v-50.7h14.7v76.9h-10.6l-39.7-52.7h-.2v51.2h-14.7"/><path d="M399.692 45.878v62.6h-14.7v-62.6h-15.2v-12.8h45.1v12.8h-15.2"/><path d="M501.309 45.878h-24.3v16.6h23.4v12.8h-23.4v20.4h24.3v12.8h-39v-75.4h39v12.8"/><path d="M595.537 39.478l-6.9 10.2c-3.067-4.133-6.833-6.2-11.3-6.2-2.4 0-4.533.833-6.4 2.5-1.867 1.6-2.8 3.6-2.8 6 0 1.667.533 3.167 1.6 4.5 1.133 1.267 2.567 2.333 4.3 3.2 1.8.8 3.767 1.633 5.9 2.5 2.133.867 4.233 1.9 6.3 3.1 2.133 1.133 4.067 2.5 5.8 4.1 1.8 1.533 3.233 3.633 4.3 6.3 1.133 2.6 1.7 5.6 1.7 9 0 7.667-2.233 13.9-6.7 18.7-4.467 4.733-10.5 7.1-18.1 7.1-9.6 0-17.333-4.9-23.2-14.7l9.5-9.3c1.067 3.067 2.833 5.667 5.3 7.8 2.533 2.133 5.3 3.2 8.3 3.2 2.933 0 5.267-1.067 7-3.2 1.8-2.133 2.7-4.7 2.7-7.7 0-4.267-2.433-7.567-7.3-9.9-.8-.4-2.733-1.2-5.8-2.4-5.533-2.267-9.733-4.9-12.6-7.9-2.8-3.067-4.2-7.3-4.2-12.7 0-6.333 2.1-11.667 6.3-16 4.2-4.4 9.433-6.6 15.7-6.6 3.467 0 7.2.8 11.2 2.4 4.067 1.533 7.2 3.533 9.4 6"/></svg>